<?xml version="1.0" standalone="no"?>
<!DOCTYPE svg PUBLIC "-//W3C//DTD SVG 20010904//EN"
 "http://www.w3.org/TR/2001/REC-SVG-20010904/DTD/svg10.dtd">
<svg version="1.0" xmlns="http://www.w3.org/2000/svg"
 width="557.000000pt" height="152.000000pt" viewBox="0 0 557.000000 152.000000"
 preserveAspectRatio="xMidYMid meet">
<metadata>
Created by potrace 1.15, written by Peter Selinger 2001-2017
</metadata>
<g transform="translate(0.000000,152.000000) scale(0.100000,-0.100000)"
fill="#000000" stroke="none">
<path d="M3137 1234 c-4 -4 -7 -166 -7 -361 l0 -353 55 0 55 0 -2 358 -3 357
-45 3 c-25 2 -49 0 -53 -4z"/>
<path d="M464 1011 c-49 -22 -74 -68 -74 -135 0 -68 40 -102 187 -155 34 -13
68 -29 74 -37 18 -22 2 -58 -35 -78 -34 -18 -38 -18 -88 -2 -29 9 -66 25 -83
36 -16 11 -33 20 -37 20 -4 0 -18 -16 -32 -36 l-25 -37 22 -17 c62 -47 167
-70 260 -56 93 14 152 104 127 196 -14 53 -61 87 -161 116 -93 27 -109 37
-109 70 0 51 107 71 180 34 22 -11 41 -20 43 -20 6 0 41 80 36 83 -2 2 -23 11
-47 20 -59 24 -184 22 -238 -2z"/>
<path d="M1005 1011 c-42 -19 -94 -71 -119 -119 -25 -47 -30 -142 -13 -203 22
-74 85 -140 156 -164 77 -25 181 -17 247 19 59 32 108 100 124 172 28 124 -37
250 -155 300 -51 21 -189 18 -240 -5z m179 -79 c32 -11 60 -31 80 -55 28 -35
31 -46 31 -106 0 -60 -3 -71 -30 -103 -16 -20 -40 -41 -53 -47 -33 -16 -128
-14 -162 4 -59 30 -92 124 -71 202 13 48 69 103 106 103 13 0 27 5 30 10 8 13
12 13 69 -8z"/>
<path d="M1530 775 l0 -255 50 0 50 0 0 113 c0 169 7 211 44 253 17 20 49 42
71 50 35 12 44 11 77 -3 55 -25 67 -63 75 -253 l6 -160 49 0 48 0 0 154 c0 84
5 166 10 182 13 35 43 58 100 78 35 12 47 12 74 1 18 -8 38 -20 44 -28 28 -34
42 -114 42 -249 l0 -138 51 0 50 0 -3 193 c-3 163 -6 198 -22 230 -29 59 -69
81 -153 85 -85 5 -127 -7 -172 -49 l-34 -30 -28 30 c-36 40 -67 51 -142 51
-63 0 -147 -29 -147 -50 0 -24 -31 -8 -36 20 -6 28 -9 30 -55 30 l-49 0 0
-255z"/>
<path d="M2640 1015 c-44 -20 -74 -48 -113 -105 -29 -42 -31 -51 -31 -135 -1
-96 8 -123 60 -184 49 -58 97 -76 205 -76 81 0 102 4 142 24 75 39 81 58 31
94 -22 17 -27 17 -42 4 -9 -8 -43 -22 -74 -32 -54 -16 -59 -16 -105 1 -26 10
-57 27 -69 38 -27 26 -45 61 -37 70 3 3 94 6 201 6 l194 0 -4 93 c-3 83 -6 96
-31 129 -49 64 -89 81 -197 85 -71 2 -104 -1 -130 -12z m173 -76 c47 -24 77
-62 77 -96 l0 -33 -140 0 c-159 0 -167 4 -130 64 33 55 142 91 193 65z"/>
<path d="M3515 1011 c-62 -28 -120 -90 -133 -144 -24 -93 -10 -209 29 -248 10
-10 19 -22 19 -25 0 -10 29 -31 74 -55 24 -13 66 -23 111 -26 96 -7 157 13
212 70 61 63 77 100 77 187 1 64 -3 84 -28 133 -16 31 -32 57 -36 57 -4 0 -19
11 -34 25 -35 32 -85 45 -176 45 -51 0 -88 -6 -115 -19z m165 -77 c86 -30 124
-86 118 -174 -3 -42 -11 -65 -33 -94 -35 -46 -59 -56 -137 -56 -57 0 -63 2
-98 38 -59 59 -72 138 -34 214 18 35 61 68 90 68 12 0 26 5 29 10 8 13 12 13
65 -6z"/>
<path d="M4125 1014 c-44 -24 -96 -88 -106 -131 -12 -51 -11 -150 1 -195 13
-46 100 -134 142 -142 92 -18 173 0 217 48 14 14 28 26 33 26 13 0 9 -47 -8
-107 -13 -43 -24 -60 -56 -84 -58 -41 -136 -41 -207 0 l-49 29 -26 -39 c-14
-21 -26 -40 -26 -43 0 -16 96 -56 158 -65 130 -20 238 25 288 119 17 31 19 65
22 318 l4 282 -56 0 c-53 0 -56 -1 -56 -25 0 -31 -3 -31 -40 -3 -40 29 -189
37 -235 12z m211 -82 c62 -46 85 -163 44 -229 -47 -79 -174 -89 -231 -20 -27
33 -41 100 -30 147 13 57 33 84 83 109 48 24 95 22 134 -7z"/>
<path d="M4805 1020 c-46 -14 -110 -74 -135 -125 -19 -39 -21 -59 -18 -138 3
-92 3 -92 48 -150 57 -73 102 -92 220 -92 100 0 140 15 193 74 48 54 65 89 73
153 12 99 -37 203 -119 255 -37 24 -54 27 -137 30 -52 1 -109 -2 -125 -7z
m160 -88 c107 -38 149 -156 89 -249 -37 -55 -70 -73 -141 -73 -112 0 -158 53
-151 176 3 64 7 77 32 103 16 17 50 37 75 45 25 8 46 14 46 15 0 0 22 -7 50
-17z"/>
</g>
</svg>
